<?xml version="1.0" encoding="UTF-8"?>
<svg xmlns="http://www.w3.org/2000/svg" width="1280" height="760" viewBox="0 0 1280 760" role="img" aria-labelledby="t d"><title id="t">ШОВ, ФУГА, ТРЕЩИНА</title><desc id="d">Три сравнения: раскрытый краевой клеевой шов деки и обечайки; центральная фуга двух частей деки; нерегулярная трещина в цельной древесине. Красным отмечены места нарушения.</desc>
<defs><pattern id="grain" width="43" height="46" patternUnits="userSpaceOnUse"><rect width="43" height="46" fill="#d6b38b"/><path d="M5 0q15 19 7 46M34 0q-10 25 5 46M20 0q5 20 -4 46" fill="none" stroke="#b88c60" stroke-width="1" opacity=".34"/></pattern><pattern id="paper" width="80" height="80" patternUnits="userSpaceOnUse"><path d="M2 27h22m28 15h20m-55 25h30" fill="none" stroke="#b4a38d" opacity=".16"/></pattern></defs>
<rect width="1280" height="760" fill="#f0e7d6"/><rect width="1280" height="760" fill="url(#paper)"/><rect x="18" y="18" width="1244" height="724" fill="none" stroke="#b4a38d"/><rect x="44" y="42" width="46" height="46" fill="none" stroke="#a44c37"/><text x="67" y="72" text-anchor="middle" font="26px Georgia, serif" fill="#a44c37">03</text>
<text x="111" y="69" font-family="Georgia,serif" font-size="33" fill="#29251f">ШОВ, ФУГА, ТРЕЩИНА</text><text x="46" y="114" font-family="Arial,sans-serif" font-size="17" fill="#766b5e">Три линии повреждения, которые нельзя смешивать</text><path d="M46 132H1234" stroke="#b4a38d"/>
<rect x="46" y="159" width="368" height="496" fill="#fbf6ed" stroke="#b4a38d"/><text x="68" y="194" fill="#a44c37" font-size="16" font-family="Arial,sans-serif" font-weight="700">01</text><text x="108" y="194" fill="#29251f" font-family="Georgia,serif" font-size="23">Краевой шов</text><text x="68" y="621" fill="#766b5e" font-size="15" font-family="Arial,sans-serif">Соединение деки с обечайкой</text><rect x="456" y="159" width="368" height="496" fill="#fbf6ed" stroke="#b4a38d"/><text x="478" y="194" fill="#a44c37" font-size="16" font-family="Arial,sans-serif" font-weight="700">02</text><text x="518" y="194" fill="#29251f" font-family="Georgia,serif" font-size="23">Центральная фуга</text><text x="478" y="621" fill="#766b5e" font-size="15" font-family="Arial,sans-serif">Стык деталей одной деки</text><rect x="866" y="159" width="368" height="496" fill="#fbf6ed" stroke="#b4a38d"/><text x="888" y="194" fill="#a44c37" font-size="16" font-family="Arial,sans-serif" font-weight="700">03</text><text x="928" y="194" fill="#29251f" font-family="Georgia,serif" font-size="23">Трещина древесины</text><text x="888" y="621" fill="#766b5e" font-size="15" font-family="Arial,sans-serif">Разрыв материала по волокнам</text><g transform="translate(76,229)">
<rect x="17" y="34" width="292" height="174" fill="url(#grain)" stroke="#29251f" stroke-width="2"/>
<rect x="17" y="221" width="292" height="124" fill="url(#grain)" stroke="#29251f" stroke-width="2"/>
<rect x="46" y="220" width="236" height="10" fill="#7b583c" opacity=".5"/>
<path d="M17 211H309" stroke="#a44c37" stroke-width="5" stroke-dasharray="16 9"/>
<path d="M260 182Q310 183 330 211" stroke="#a44c37" stroke-width="2.5" fill="none"/>
<circle cx="260" cy="182" r="5" fill="#a44c37"/>
<text x="28" y="19" fill="#766b5e" font-size="16" font-family="Arial,sans-serif">дека</text><text x="28" y="382" fill="#766b5e" font-size="16" font-family="Arial,sans-serif">обечайка (боковая стенка)</text>
<text x="235" y="165" fill="#a44c37" font-size="16" font-family="Arial,sans-serif">шов</text>
</g><g transform="translate(480,234)">
<rect x="12" y="32" width="320" height="312" fill="url(#grain)" stroke="#29251f" stroke-width="2"/>
<path d="M171 33V346" stroke="#29251f" stroke-width="2" stroke-dasharray="8 7" opacity=".5"/>
<path d="M171 46Q167 113 174 171Q164 218 171 338" stroke="#a44c37" stroke-width="5" stroke-linecap="round" fill="none"/>
<path d="M151 35l-10 10m50 -10l10 10" stroke="#a44c37" stroke-width="2.3"/>
<path d="M47 79q38 18 50 1M230 260q41 -11 53 2" stroke="#8b6444" stroke-width="1.3" fill="none" opacity=".65"/>
<text x="35" y="390" font-size="16" font-family="Arial,sans-serif" fill="#766b5e">левая часть · правая часть</text>
</g><g transform="translate(898,229)">
<rect x="8" y="34" width="300" height="336" fill="url(#grain)" stroke="#29251f" stroke-width="2"/>
<g stroke="#8b6444" stroke-width="1" opacity=".52" fill="none">
<path d="M33 35Q55 150 34 366 M80 35Q102 160 85 367 M146 35Q131 190 143 367 M206 35Q230 180 211 367 M270 35Q247 188 276 367"/>
</g>
<path d="M113 51L128 102L117 162L144 212L130 277L166 349" fill="none" stroke="#a44c37" stroke-width="6" stroke-linecap="round" stroke-linejoin="round"/>
<circle cx="130" cy="277" r="10" fill="#fbf6ed" stroke="#a44c37" stroke-width="3"/>
<text x="21" y="405" fill="#766b5e" font-size="15" font-family="Arial,sans-serif">напряжение идёт через дерево</text>
</g><g font-size="15" font-family="Arial,sans-serif" fill="#29251f"><text x="79" y="668">Раскрылся клеевой контакт</text><text x="487" y="668">Разошлись части деки</text><text x="895" y="668">Появился разрыв древесины</text></g>
<path d="M46 692H1234" stroke="#b4a38d"/><text x="46" y="718" font-size="19" font-family="Georgia,serif" fill="#29251f">EasyBassMaster · Мастерская контрабаса</text><text x="1234" y="718" text-anchor="end" font-size="14" font-family="Arial,sans-serif" fill="#766b5e">Чертёжная карта · различение, а не диагноз</text>
</svg>